<mxfile host="Electron" modified="2024-03-18T00:33:04.289Z" agent="Mozilla/5.0 (Windows NT 10.0; Win64; x64) AppleWebKit/537.36 (KHTML, like Gecko) draw.io/23.1.5 Chrome/120.0.6099.109 Electron/28.1.0 Safari/537.36" etag="gdleKCAdL-jZKD6yuw2c" version="23.1.5" type="device">
  <diagram name="Page-1" id="_YcRZ0FMCQsddOkDqASO">
    <mxGraphModel dx="2888" dy="968" grid="1" gridSize="10" guides="1" tooltips="1" connect="1" arrows="1" fold="1" page="1" pageScale="1" pageWidth="850" pageHeight="1100" math="0" shadow="0">
      <root>
        <mxCell id="0" />
        <mxCell id="1" parent="0" />
        <mxCell id="zwf8QehJpGA8gEj2U5Zu-31" style="edgeStyle=orthogonalEdgeStyle;rounded=0;orthogonalLoop=1;jettySize=auto;html=1;exitX=0.75;exitY=0;exitDx=0;exitDy=0;entryX=0.5;entryY=1;entryDx=0;entryDy=0;strokeColor=#FF0000;" edge="1" parent="1" source="zwf8QehJpGA8gEj2U5Zu-2" target="zwf8QehJpGA8gEj2U5Zu-28">
          <mxGeometry relative="1" as="geometry" />
        </mxCell>
        <mxCell id="zwf8QehJpGA8gEj2U5Zu-33" style="edgeStyle=orthogonalEdgeStyle;rounded=0;orthogonalLoop=1;jettySize=auto;html=1;entryX=0.5;entryY=0;entryDx=0;entryDy=0;" edge="1" parent="1" source="zwf8QehJpGA8gEj2U5Zu-2">
          <mxGeometry relative="1" as="geometry">
            <mxPoint x="300" y="430" as="targetPoint" />
          </mxGeometry>
        </mxCell>
        <mxCell id="zwf8QehJpGA8gEj2U5Zu-34" value="get origin" style="edgeLabel;html=1;align=center;verticalAlign=middle;resizable=0;points=[];" vertex="1" connectable="0" parent="zwf8QehJpGA8gEj2U5Zu-33">
          <mxGeometry x="-0.2679" y="2" relative="1" as="geometry">
            <mxPoint as="offset" />
          </mxGeometry>
        </mxCell>
        <mxCell id="zwf8QehJpGA8gEj2U5Zu-2" value="IDLE" style="swimlane;fontStyle=0;childLayout=stackLayout;horizontal=1;startSize=26;fillColor=none;horizontalStack=0;resizeParent=1;resizeParentMax=0;resizeLast=0;collapsible=1;marginBottom=0;whiteSpace=wrap;html=1;" vertex="1" parent="1">
          <mxGeometry x="230" y="270" width="140" height="52" as="geometry" />
        </mxCell>
        <mxCell id="zwf8QehJpGA8gEj2U5Zu-3" value="entry/wait for requests" style="text;strokeColor=none;fillColor=none;align=left;verticalAlign=top;spacingLeft=4;spacingRight=4;overflow=hidden;rotatable=0;points=[[0,0.5],[1,0.5]];portConstraint=eastwest;whiteSpace=wrap;html=1;" vertex="1" parent="zwf8QehJpGA8gEj2U5Zu-2">
          <mxGeometry y="26" width="140" height="26" as="geometry" />
        </mxCell>
        <mxCell id="zwf8QehJpGA8gEj2U5Zu-26" value="FAULT" style="swimlane;fontStyle=0;childLayout=stackLayout;horizontal=1;startSize=26;fillColor=none;horizontalStack=0;resizeParent=1;resizeParentMax=0;resizeLast=0;collapsible=1;marginBottom=0;whiteSpace=wrap;html=1;" vertex="1" parent="1">
          <mxGeometry x="-400" y="230" width="140" height="52" as="geometry" />
        </mxCell>
        <mxCell id="zwf8QehJpGA8gEj2U5Zu-27" value="entry/none" style="text;strokeColor=none;fillColor=none;align=left;verticalAlign=top;spacingLeft=4;spacingRight=4;overflow=hidden;rotatable=0;points=[[0,0.5],[1,0.5]];portConstraint=eastwest;whiteSpace=wrap;html=1;" vertex="1" parent="zwf8QehJpGA8gEj2U5Zu-26">
          <mxGeometry y="26" width="140" height="26" as="geometry" />
        </mxCell>
        <mxCell id="zwf8QehJpGA8gEj2U5Zu-28" value="" style="ellipse;html=1;shape=endState;fillColor=#000000;strokeColor=#ff0000;" vertex="1" parent="1">
          <mxGeometry x="320" y="160" width="30" height="30" as="geometry" />
        </mxCell>
        <mxCell id="zwf8QehJpGA8gEj2U5Zu-29" value="" style="ellipse;html=1;shape=startState;fillColor=#000000;strokeColor=#ff0000;" vertex="1" parent="1">
          <mxGeometry x="240" y="150" width="30" height="30" as="geometry" />
        </mxCell>
        <mxCell id="zwf8QehJpGA8gEj2U5Zu-30" value="" style="edgeStyle=orthogonalEdgeStyle;html=1;verticalAlign=bottom;endArrow=open;endSize=8;strokeColor=#ff0000;rounded=0;entryX=0.169;entryY=0.023;entryDx=0;entryDy=0;entryPerimeter=0;" edge="1" source="zwf8QehJpGA8gEj2U5Zu-29" parent="1" target="zwf8QehJpGA8gEj2U5Zu-2">
          <mxGeometry relative="1" as="geometry">
            <mxPoint x="155" y="260" as="targetPoint" />
          </mxGeometry>
        </mxCell>
        <mxCell id="zwf8QehJpGA8gEj2U5Zu-35" style="edgeStyle=orthogonalEdgeStyle;rounded=0;orthogonalLoop=1;jettySize=auto;html=1;exitX=1;exitY=0.5;exitDx=0;exitDy=0;entryX=0.341;entryY=0;entryDx=0;entryDy=0;entryPerimeter=0;" edge="1" parent="1" target="zwf8QehJpGA8gEj2U5Zu-43">
          <mxGeometry relative="1" as="geometry">
            <mxPoint x="315.0000000000002" y="445" as="sourcePoint" />
            <mxPoint x="552.54" y="508.5440000000001" as="targetPoint" />
          </mxGeometry>
        </mxCell>
        <mxCell id="zwf8QehJpGA8gEj2U5Zu-36" value="[origin=&quot;floor&quot;]" style="edgeLabel;html=1;align=center;verticalAlign=middle;resizable=0;points=[];" vertex="1" connectable="0" parent="zwf8QehJpGA8gEj2U5Zu-35">
          <mxGeometry x="-0.0088" y="-4" relative="1" as="geometry">
            <mxPoint y="-19" as="offset" />
          </mxGeometry>
        </mxCell>
        <mxCell id="zwf8QehJpGA8gEj2U5Zu-43" value="PROCESSING_FLOOR_REQUEST" style="swimlane;fontStyle=0" vertex="1" parent="1">
          <mxGeometry x="500" y="600" width="410" height="410" as="geometry" />
        </mxCell>
        <mxCell id="zwf8QehJpGA8gEj2U5Zu-44" value="" style="ellipse;whiteSpace=wrap;html=1;aspect=fixed;" vertex="1" parent="zwf8QehJpGA8gEj2U5Zu-43">
          <mxGeometry x="20" y="90" width="30" height="30" as="geometry" />
        </mxCell>
        <mxCell id="zwf8QehJpGA8gEj2U5Zu-48" value="" style="curved=1;endArrow=classic;html=1;rounded=0;entryX=0.5;entryY=0;entryDx=0;entryDy=0;" edge="1" parent="zwf8QehJpGA8gEj2U5Zu-43" target="zwf8QehJpGA8gEj2U5Zu-44">
          <mxGeometry width="50" height="50" relative="1" as="geometry">
            <mxPoint x="20" y="30" as="sourcePoint" />
            <mxPoint x="90" y="40" as="targetPoint" />
            <Array as="points">
              <mxPoint x="20" y="70" />
              <mxPoint x="40" y="40" />
            </Array>
          </mxGeometry>
        </mxCell>
        <mxCell id="zwf8QehJpGA8gEj2U5Zu-49" value="get action&amp;nbsp;" style="edgeLabel;html=1;align=center;verticalAlign=middle;resizable=0;points=[];" vertex="1" connectable="0" parent="zwf8QehJpGA8gEj2U5Zu-48">
          <mxGeometry x="0.44" y="-3" relative="1" as="geometry">
            <mxPoint x="34" as="offset" />
          </mxGeometry>
        </mxCell>
        <mxCell id="zwf8QehJpGA8gEj2U5Zu-18" value="&lt;span style=&quot;font-weight: normal;&quot;&gt;ADD_INSTRUCTION&lt;/span&gt;" style="swimlane;fontStyle=1;align=center;verticalAlign=top;childLayout=stackLayout;horizontal=1;startSize=26;horizontalStack=0;resizeParent=1;resizeParentMax=0;resizeLast=0;collapsible=1;marginBottom=0;whiteSpace=wrap;html=1;" vertex="1" parent="zwf8QehJpGA8gEj2U5Zu-43">
          <mxGeometry x="150" y="150" width="200" height="124" as="geometry" />
        </mxCell>
        <mxCell id="zwf8QehJpGA8gEj2U5Zu-19" value="entr/find elevator with the highest pickup to the elevator with the highest pickup priority" style="text;strokeColor=none;fillColor=none;align=left;verticalAlign=top;spacingLeft=4;spacingRight=4;overflow=hidden;rotatable=0;points=[[0,0.5],[1,0.5]];portConstraint=eastwest;whiteSpace=wrap;html=1;" vertex="1" parent="zwf8QehJpGA8gEj2U5Zu-18">
          <mxGeometry y="26" width="200" height="64" as="geometry" />
        </mxCell>
        <mxCell id="zwf8QehJpGA8gEj2U5Zu-20" value="" style="line;strokeWidth=1;fillColor=none;align=left;verticalAlign=middle;spacingTop=-1;spacingLeft=3;spacingRight=3;rotatable=0;labelPosition=right;points=[];portConstraint=eastwest;strokeColor=inherit;" vertex="1" parent="zwf8QehJpGA8gEj2U5Zu-18">
          <mxGeometry y="90" width="200" height="8" as="geometry" />
        </mxCell>
        <mxCell id="zwf8QehJpGA8gEj2U5Zu-21" value="exit/send &quot;OK&quot;" style="text;strokeColor=none;fillColor=none;align=left;verticalAlign=top;spacingLeft=4;spacingRight=4;overflow=hidden;rotatable=0;points=[[0,0.5],[1,0.5]];portConstraint=eastwest;whiteSpace=wrap;html=1;" vertex="1" parent="zwf8QehJpGA8gEj2U5Zu-18">
          <mxGeometry y="98" width="200" height="26" as="geometry" />
        </mxCell>
        <mxCell id="zwf8QehJpGA8gEj2U5Zu-51" style="edgeStyle=orthogonalEdgeStyle;rounded=0;orthogonalLoop=1;jettySize=auto;html=1;exitX=1;exitY=0.5;exitDx=0;exitDy=0;entryX=0.209;entryY=0.015;entryDx=0;entryDy=0;entryPerimeter=0;" edge="1" parent="zwf8QehJpGA8gEj2U5Zu-43" source="zwf8QehJpGA8gEj2U5Zu-44" target="zwf8QehJpGA8gEj2U5Zu-18">
          <mxGeometry relative="1" as="geometry" />
        </mxCell>
        <mxCell id="zwf8QehJpGA8gEj2U5Zu-52" value="[action = &quot;addInstruction&quot;]" style="edgeLabel;html=1;align=center;verticalAlign=middle;resizable=0;points=[];" vertex="1" connectable="0" parent="zwf8QehJpGA8gEj2U5Zu-51">
          <mxGeometry x="-0.216" y="1" relative="1" as="geometry">
            <mxPoint y="-14" as="offset" />
          </mxGeometry>
        </mxCell>
        <mxCell id="zwf8QehJpGA8gEj2U5Zu-110" style="edgeStyle=orthogonalEdgeStyle;rounded=0;orthogonalLoop=1;jettySize=auto;html=1;exitX=1;exitY=0.5;exitDx=0;exitDy=0;entryX=1;entryY=0.5;entryDx=0;entryDy=0;" edge="1" parent="1" source="zwf8QehJpGA8gEj2U5Zu-53" target="zwf8QehJpGA8gEj2U5Zu-3">
          <mxGeometry relative="1" as="geometry">
            <Array as="points">
              <mxPoint x="990" y="1255" />
              <mxPoint x="990" y="309" />
            </Array>
          </mxGeometry>
        </mxCell>
        <mxCell id="zwf8QehJpGA8gEj2U5Zu-111" value="send complete" style="edgeLabel;html=1;align=center;verticalAlign=middle;resizable=0;points=[];" vertex="1" connectable="0" parent="zwf8QehJpGA8gEj2U5Zu-110">
          <mxGeometry x="-0.278" y="-4" relative="1" as="geometry">
            <mxPoint x="56" y="1" as="offset" />
          </mxGeometry>
        </mxCell>
        <mxCell id="zwf8QehJpGA8gEj2U5Zu-53" value="&lt;span style=&quot;font-weight: normal;&quot;&gt;PROCESSING_REGISTRATION&lt;/span&gt;" style="swimlane;whiteSpace=wrap;html=1;" vertex="1" parent="1">
          <mxGeometry x="10" y="1210" width="520" height="90" as="geometry" />
        </mxCell>
        <mxCell id="zwf8QehJpGA8gEj2U5Zu-54" value="enrty/add node to the HashMap" style="text;html=1;align=center;verticalAlign=middle;resizable=0;points=[];autosize=1;strokeColor=none;fillColor=none;" vertex="1" parent="zwf8QehJpGA8gEj2U5Zu-53">
          <mxGeometry y="28" width="190" height="30" as="geometry" />
        </mxCell>
        <mxCell id="zwf8QehJpGA8gEj2U5Zu-55" value="exit/send &quot;OK&quot;" style="text;html=1;align=center;verticalAlign=middle;resizable=0;points=[];autosize=1;strokeColor=none;fillColor=none;" vertex="1" parent="zwf8QehJpGA8gEj2U5Zu-53">
          <mxGeometry y="58" width="100" height="30" as="geometry" />
        </mxCell>
        <mxCell id="zwf8QehJpGA8gEj2U5Zu-56" style="edgeStyle=orthogonalEdgeStyle;rounded=0;orthogonalLoop=1;jettySize=auto;html=1;exitX=0.5;exitY=1;exitDx=0;exitDy=0;entryX=0.925;entryY=-0.012;entryDx=0;entryDy=0;entryPerimeter=0;" edge="1" parent="1" source="zwf8QehJpGA8gEj2U5Zu-44" target="zwf8QehJpGA8gEj2U5Zu-53">
          <mxGeometry relative="1" as="geometry" />
        </mxCell>
        <mxCell id="zwf8QehJpGA8gEj2U5Zu-57" value="[action=&quot;register&quot;]" style="edgeLabel;html=1;align=center;verticalAlign=middle;resizable=0;points=[];" vertex="1" connectable="0" parent="zwf8QehJpGA8gEj2U5Zu-56">
          <mxGeometry x="-0.7079" y="1" relative="1" as="geometry">
            <mxPoint x="54" y="80" as="offset" />
          </mxGeometry>
        </mxCell>
        <mxCell id="zwf8QehJpGA8gEj2U5Zu-72" value="PROCESSING_ELEVATOR_REQUEST" style="swimlane;fontStyle=0" vertex="1" parent="1">
          <mxGeometry x="-120" y="660" width="440" height="370" as="geometry" />
        </mxCell>
        <mxCell id="zwf8QehJpGA8gEj2U5Zu-80" style="edgeStyle=orthogonalEdgeStyle;rounded=0;orthogonalLoop=1;jettySize=auto;html=1;exitX=0;exitY=1;exitDx=0;exitDy=0;entryX=0.25;entryY=0;entryDx=0;entryDy=0;" edge="1" parent="zwf8QehJpGA8gEj2U5Zu-72" source="zwf8QehJpGA8gEj2U5Zu-73">
          <mxGeometry relative="1" as="geometry">
            <mxPoint x="130" y="200" as="targetPoint" />
          </mxGeometry>
        </mxCell>
        <mxCell id="zwf8QehJpGA8gEj2U5Zu-81" value="[action = &quot;event&quot;]" style="edgeLabel;html=1;align=center;verticalAlign=middle;resizable=0;points=[];" vertex="1" connectable="0" parent="zwf8QehJpGA8gEj2U5Zu-80">
          <mxGeometry x="-0.0707" y="-4" relative="1" as="geometry">
            <mxPoint x="-13" y="-12" as="offset" />
          </mxGeometry>
        </mxCell>
        <mxCell id="zwf8QehJpGA8gEj2U5Zu-73" value="" style="ellipse;whiteSpace=wrap;html=1;aspect=fixed;" vertex="1" parent="zwf8QehJpGA8gEj2U5Zu-72">
          <mxGeometry x="260" y="90" width="30" height="30" as="geometry" />
        </mxCell>
        <mxCell id="zwf8QehJpGA8gEj2U5Zu-105" value="FORWARD_EVENT" style="swimlane;fontStyle=0;childLayout=stackLayout;horizontal=1;startSize=26;fillColor=none;horizontalStack=0;resizeParent=1;resizeParentMax=0;resizeLast=0;collapsible=1;marginBottom=0;whiteSpace=wrap;html=1;" vertex="1" parent="zwf8QehJpGA8gEj2U5Zu-72">
          <mxGeometry x="100" y="200" width="140" height="60" as="geometry" />
        </mxCell>
        <mxCell id="zwf8QehJpGA8gEj2U5Zu-106" value="entry/forward to the floor" style="text;strokeColor=none;fillColor=none;align=left;verticalAlign=top;spacingLeft=4;spacingRight=4;overflow=hidden;rotatable=0;points=[[0,0.5],[1,0.5]];portConstraint=eastwest;whiteSpace=wrap;html=1;" vertex="1" parent="zwf8QehJpGA8gEj2U5Zu-105">
          <mxGeometry y="26" width="140" height="34" as="geometry" />
        </mxCell>
        <mxCell id="zwf8QehJpGA8gEj2U5Zu-107" value="entry/if event is arrived, then foreward to the floor" style="text;html=1;align=center;verticalAlign=middle;resizable=0;points=[];autosize=1;strokeColor=none;fillColor=none;" vertex="1" parent="zwf8QehJpGA8gEj2U5Zu-72">
          <mxGeometry y="20" width="280" height="30" as="geometry" />
        </mxCell>
        <mxCell id="zwf8QehJpGA8gEj2U5Zu-78" value="" style="endArrow=classic;html=1;rounded=0;entryX=0.5;entryY=0;entryDx=0;entryDy=0;" edge="1" parent="1" target="zwf8QehJpGA8gEj2U5Zu-73">
          <mxGeometry width="50" height="50" relative="1" as="geometry">
            <mxPoint x="230" y="690" as="sourcePoint" />
            <mxPoint x="300" y="710" as="targetPoint" />
          </mxGeometry>
        </mxCell>
        <mxCell id="zwf8QehJpGA8gEj2U5Zu-79" value="get action&amp;nbsp;" style="edgeLabel;html=1;align=center;verticalAlign=middle;resizable=0;points=[];" vertex="1" connectable="0" parent="zwf8QehJpGA8gEj2U5Zu-78">
          <mxGeometry x="-0.1032" y="-2" relative="1" as="geometry">
            <mxPoint x="-32" y="4" as="offset" />
          </mxGeometry>
        </mxCell>
        <mxCell id="zwf8QehJpGA8gEj2U5Zu-86" style="edgeStyle=orthogonalEdgeStyle;rounded=0;orthogonalLoop=1;jettySize=auto;html=1;exitX=0.5;exitY=1;exitDx=0;exitDy=0;entryX=0.355;entryY=0;entryDx=0;entryDy=0;entryPerimeter=0;" edge="1" parent="1" source="zwf8QehJpGA8gEj2U5Zu-73" target="zwf8QehJpGA8gEj2U5Zu-53">
          <mxGeometry relative="1" as="geometry">
            <mxPoint x="194.76923076923072" y="1170" as="targetPoint" />
          </mxGeometry>
        </mxCell>
        <mxCell id="zwf8QehJpGA8gEj2U5Zu-87" value="[action=&quot;register&quot;]" style="edgeLabel;html=1;align=center;verticalAlign=middle;resizable=0;points=[];" vertex="1" connectable="0" parent="zwf8QehJpGA8gEj2U5Zu-86">
          <mxGeometry x="-0.7098" relative="1" as="geometry">
            <mxPoint x="55" y="53" as="offset" />
          </mxGeometry>
        </mxCell>
        <mxCell id="zwf8QehJpGA8gEj2U5Zu-92" value="" style="endArrow=classic;html=1;rounded=0;exitX=0.004;exitY=-0.043;exitDx=0;exitDy=0;exitPerimeter=0;entryX=1;entryY=0.5;entryDx=0;entryDy=0;" edge="1" parent="1" source="zwf8QehJpGA8gEj2U5Zu-3" target="zwf8QehJpGA8gEj2U5Zu-26">
          <mxGeometry width="50" height="50" relative="1" as="geometry">
            <mxPoint x="-20" y="410" as="sourcePoint" />
            <mxPoint x="30" y="360" as="targetPoint" />
          </mxGeometry>
        </mxCell>
        <mxCell id="zwf8QehJpGA8gEj2U5Zu-94" value="an error has occurred. Will expand on this in future iterations" style="edgeLabel;html=1;align=center;verticalAlign=middle;resizable=0;points=[];" vertex="1" connectable="0" parent="zwf8QehJpGA8gEj2U5Zu-92">
          <mxGeometry x="0.1976" y="-2" relative="1" as="geometry">
            <mxPoint x="-13" y="-36" as="offset" />
          </mxGeometry>
        </mxCell>
        <mxCell id="zwf8QehJpGA8gEj2U5Zu-103" style="edgeStyle=orthogonalEdgeStyle;rounded=0;orthogonalLoop=1;jettySize=auto;html=1;exitX=0;exitY=0.5;exitDx=0;exitDy=0;entryX=0.5;entryY=0;entryDx=0;entryDy=0;" edge="1" parent="1" source="zwf8QehJpGA8gEj2U5Zu-102" target="zwf8QehJpGA8gEj2U5Zu-72">
          <mxGeometry relative="1" as="geometry" />
        </mxCell>
        <mxCell id="zwf8QehJpGA8gEj2U5Zu-104" value="[origin=&quot;elevator&quot;]" style="edgeLabel;html=1;align=center;verticalAlign=middle;resizable=0;points=[];" vertex="1" connectable="0" parent="zwf8QehJpGA8gEj2U5Zu-103">
          <mxGeometry x="0.2634" relative="1" as="geometry">
            <mxPoint x="-70" as="offset" />
          </mxGeometry>
        </mxCell>
        <mxCell id="zwf8QehJpGA8gEj2U5Zu-102" value="" style="ellipse;whiteSpace=wrap;html=1;aspect=fixed;" vertex="1" parent="1">
          <mxGeometry x="285" y="430" width="30" height="30" as="geometry" />
        </mxCell>
        <mxCell id="zwf8QehJpGA8gEj2U5Zu-113" style="edgeStyle=orthogonalEdgeStyle;rounded=0;orthogonalLoop=1;jettySize=auto;html=1;exitX=1;exitY=0.25;exitDx=0;exitDy=0;entryX=-0.009;entryY=0.676;entryDx=0;entryDy=0;entryPerimeter=0;" edge="1" parent="1" source="zwf8QehJpGA8gEj2U5Zu-105" target="zwf8QehJpGA8gEj2U5Zu-19">
          <mxGeometry relative="1" as="geometry">
            <Array as="points">
              <mxPoint x="140" y="875" />
              <mxPoint x="140" y="819" />
            </Array>
          </mxGeometry>
        </mxCell>
        <mxCell id="zwf8QehJpGA8gEj2U5Zu-114" value="[action=&quot;addInstruction&quot;]" style="edgeLabel;html=1;align=center;verticalAlign=middle;resizable=0;points=[];" vertex="1" connectable="0" parent="zwf8QehJpGA8gEj2U5Zu-113">
          <mxGeometry x="0.3426" y="-6" relative="1" as="geometry">
            <mxPoint x="-32" y="-20" as="offset" />
          </mxGeometry>
        </mxCell>
        <mxCell id="zwf8QehJpGA8gEj2U5Zu-115" style="edgeStyle=orthogonalEdgeStyle;rounded=0;orthogonalLoop=1;jettySize=auto;html=1;exitX=1;exitY=0.5;exitDx=0;exitDy=0;entryX=1.071;entryY=-0.231;entryDx=0;entryDy=0;entryPerimeter=0;" edge="1" parent="1" source="zwf8QehJpGA8gEj2U5Zu-19" target="zwf8QehJpGA8gEj2U5Zu-3">
          <mxGeometry relative="1" as="geometry">
            <Array as="points">
              <mxPoint x="1040" y="808" />
              <mxPoint x="1040" y="290" />
            </Array>
          </mxGeometry>
        </mxCell>
        <mxCell id="zwf8QehJpGA8gEj2U5Zu-116" value="processed instruction" style="edgeLabel;html=1;align=center;verticalAlign=middle;resizable=0;points=[];" vertex="1" connectable="0" parent="zwf8QehJpGA8gEj2U5Zu-115">
          <mxGeometry x="-0.2351" y="-6" relative="1" as="geometry">
            <mxPoint x="64" as="offset" />
          </mxGeometry>
        </mxCell>
        <mxCell id="zwf8QehJpGA8gEj2U5Zu-117" style="edgeStyle=orthogonalEdgeStyle;rounded=0;orthogonalLoop=1;jettySize=auto;html=1;exitX=0;exitY=0.5;exitDx=0;exitDy=0;entryX=0;entryY=0.5;entryDx=0;entryDy=0;" edge="1" parent="1" source="zwf8QehJpGA8gEj2U5Zu-106" target="zwf8QehJpGA8gEj2U5Zu-3">
          <mxGeometry relative="1" as="geometry">
            <Array as="points">
              <mxPoint x="-210" y="903" />
              <mxPoint x="-210" y="309" />
            </Array>
          </mxGeometry>
        </mxCell>
        <mxCell id="zwf8QehJpGA8gEj2U5Zu-118" value="forwarded to the floor" style="edgeLabel;html=1;align=center;verticalAlign=middle;resizable=0;points=[];" vertex="1" connectable="0" parent="zwf8QehJpGA8gEj2U5Zu-117">
          <mxGeometry x="-0.0777" y="-3" relative="1" as="geometry">
            <mxPoint x="-73" as="offset" />
          </mxGeometry>
        </mxCell>
      </root>
    </mxGraphModel>
  </diagram>
</mxfile>
